<svg xmlns="http://www.w3.org/2000/svg" viewBox="0 0 442.22 119"><defs><style>.a{fill:aqua;}.b{fill:#fff;}</style></defs><rect class="a" width="225" height="119"/><path class="b" d="M329.86,62.55,328.59,33q-3,5.46-8.63,17.53-4.83,10.29-6.48,13.34A115.92,115.92,0,0,1,329.86,62.55Zm20.58,50.36a11,11,0,0,1-4.13,2.79,12.76,12.76,0,0,1-4.89,1.08q-3.68,0-4.19-2.28-4.58-18.16-6.73-43.19a109,109,0,0,0-22.74,2.16q-11.94,19.95-22.23,36.71-1,1.78-4.25,3a17.25,17.25,0,0,1-6,1.21c-2.37,0-3.55-.63-3.55-1.9a3.4,3.4,0,0,1,.51-1.66Q282.36,93,291,78.3l-2.15.76a10.61,10.61,0,0,1-3.69.76,4,4,0,0,1-2.6-.76,2.33,2.33,0,0,1-.95-1.91,4,4,0,0,1,1.2-2.6,10.37,10.37,0,0,1,3.49-2.35A107.42,107.42,0,0,1,297,68q6.87-11.82,14.61-26.8,8.9-17.14,15-26.8a5.45,5.45,0,0,1,1-1l-.13-.64c0-1.52,1.08-2.9,3.24-4.12a13.1,13.1,0,0,1,6.54-1.85q4.06,0,4.19,3.05l.38,8.51q1.14,30.62,3,51.51a240.11,240.11,0,0,0,6.67,39.44A3.75,3.75,0,0,1,350.44,112.91Z" transform="translate(0 -0.5)"/><path class="b" d="M59.5,86.85A73.55,73.55,0,0,0,44.9,88.6c-5.95,1.22-12,2.57-18,3.79-1.49.27-2.17.94-2.3,2.3A22.36,22.36,0,0,1,24,97.52c-.81,2.84-2.56,4.19-5.4,3.92-2.43-.13-4.19-2-4.46-4.73a40.14,40.14,0,0,1,.13-7c2.44-23.65,3.38-53,20.14-71.77a17.56,17.56,0,0,1,9-6.08,10.88,10.88,0,0,1,8.65,1.49A23.13,23.13,0,0,1,61.52,23.6c5.54,10.68,8,24.06,10.14,35.95A147.23,147.23,0,0,1,73.82,93.2a18.2,18.2,0,0,1-.94,4.59,5.19,5.19,0,0,1-5.28,3.38,5.29,5.29,0,0,1-5.27-3.38,25.85,25.85,0,0,1-1.21-4.32C60.58,91.31,60,89.14,59.5,86.85ZM44.77,27.52c-.54.68-1.22,1.22-1.76,1.89a51.9,51.9,0,0,0-7,12.84c-4.19,10.68-6.21,21.89-8,33.25A14.43,14.43,0,0,1,28.14,77a97.42,97.42,0,0,1,28-7.43V68.33c-1.89-8.92-3.65-17.7-5.54-26.49-.95-3.78-2.17-7.56-3.38-11.21A4.63,4.63,0,0,0,44.77,27.52ZM34.63,23.2c2.16-1.9,4.19-3.79,6.35-5.55s4.87-2.29,7.43-3.1c-3-1.22-5.67-.41-8.24,1.21C36.79,18.06,34.5,20.9,34.63,23.2Zm28,64.73c-.13,3.11.14,5.94,1.76,8.51a10.79,10.79,0,0,0,2.57,2.43,2.64,2.64,0,0,0,3-.13C64.77,96.71,64.09,92.12,62.6,87.93ZM16.25,90.5a7.64,7.64,0,0,0,.14,7.43c.81,1.89,2.16,2.3,4.05,1.49C16.66,97.52,17.06,93.74,16.25,90.5Z" transform="translate(0 -0.5)"/><path class="b" d="M305.67,7.46q0,2-3,4.18A10.68,10.68,0,0,1,296.93,14a131,131,0,0,0-32,4.43q-5.22,16.83-9.52,35.88a110.76,110.76,0,0,1,21.79-2.22c3,0,6.13.14,9.26.4,1.83.08,2.74.69,2.74,1.82q0,2-3.26,4.5c-2.18,1.7-4.05,2.5-5.61,2.42q-2-.13-5.87-.13a104.41,104.41,0,0,0-21.14,2.35q-5.22,23.09-8.48,45.53-.39,2.48-3.92,4.37a14.52,14.52,0,0,1-6.91,1.89,5.26,5.26,0,0,1-3.07-.78,2.18,2.18,0,0,1-.84-2.35q4-25.57,8.21-44.62l-4.43,1.57a12.94,12.94,0,0,1-3.92.78,4.18,4.18,0,0,1-2.47-.65,2.13,2.13,0,0,1-.92-1.83,4.21,4.21,0,0,1,1.31-2.74A11.92,11.92,0,0,1,231.69,62q4.56-2.09,8.74-3.52,4.44-19.32,9.66-35.1a11,11,0,0,1-2.61.52,5.3,5.3,0,0,1-3.13-.91A2.67,2.67,0,0,1,243,20.77q0-2.34,3.65-4Q271.35,4.85,301.62,5.25C304.32,5.25,305.67,6,305.67,7.46Z" transform="translate(0 -0.5)"/><path class="b" d="M437.7,6.75a5.57,5.57,0,0,1,3.39.86,2.64,2.64,0,0,1,1.13,2.19,5.42,5.42,0,0,1-2.12,3.92,10.07,10.07,0,0,1-5.19,2.46l-.53.66A19.51,19.51,0,0,0,431.59,21a71,71,0,0,0-5,13.16q-3.33,12-5.85,32.28Q419.11,79.68,417.78,96a22.44,22.44,0,0,0-.14,2.93,55.27,55.27,0,0,1-.79,7,10.53,10.53,0,0,1-2,4.58,16.18,16.18,0,0,1-9.69,4.12q-3.33,0-4-2.65-2.93-9.84-7-28.7c-.44-2-1.11-4.83-2-8.64s-1.69-7.13-2.39-10L386.16,51q-.8,8.37-2,16.87Q382,83.13,379.58,93.37a56,56,0,0,1-7.9,18.33,10.87,10.87,0,0,1-4.05,3.65,11,11,0,0,1-5.25,1.4,8.35,8.35,0,0,1-3.46-.73,2.28,2.28,0,0,1-1.59-2.06,2.53,2.53,0,0,1,.53-1.6,73.57,73.57,0,0,0,7.37-18.93q2.46-10.16,4.59-25.17a308.49,308.49,0,0,0,3.05-41.45c0-5.14-.08-9-.26-11.56-.09-1.68.93-3.17,3.05-4.45a12.73,12.73,0,0,1,6.65-1.93,5.42,5.42,0,0,1,4,1.33A22.37,22.37,0,0,1,391,17q1.65,3.8,4.18,11.23,3.33,9.57,8.37,29,.93,3.33,2.53,10,.53-4.11,1.86-12.62,2.12-12.75,4.58-21.78A50.55,50.55,0,0,1,420.7,16a21.94,21.94,0,0,1,15.14-9.1A10.05,10.05,0,0,1,437.7,6.75Z" transform="translate(0 -0.5)"/><path class="b" d="M89.89,57.47a39.2,39.2,0,0,0-.41,4.22c-.14,3.14-.28,6.27-.28,9.4l-.81,21.25a9.77,9.77,0,0,1-1,4A4.8,4.8,0,0,1,79,97.38a7.72,7.72,0,0,1-1.91-5c-.14-3.54,0-7.08,0-10.62.14-3,.41-6,.41-9,.14-8,.14-16.08.27-24.11q.4-8,1.23-15.94a16.28,16.28,0,0,1,2-5.59c3.27-5.45,9.54-5.72,13.49-.95a42.62,42.62,0,0,1,6.13,10.76c3.13,7.08,6,14.44,9.12,21.66s6,14.44,9.13,21.8a18.8,18.8,0,0,0,1.23,2.31,9.79,9.79,0,0,0,1-5c.27-13.21.41-26.56.82-39.78.13-7.08.68-14.16,1.09-21.25a24.09,24.09,0,0,1,1.36-5.17,5.22,5.22,0,0,1,4.9-3.95,5.88,5.88,0,0,1,5.73,3.4c1.22,2.32,1.36,4.9,1.63,7.49,1.77,27.11-3.4,53.68-3.4,80.65-.28,2.86-1,5.58-3,7.76-3.41,3.68-7.63,4.23-12.13,3.27-3.81-.81-6.53-3.27-8.85-6.13-4-4.63-6.4-9.94-8.45-15.66-3.4-9.81-6.67-19.89-10.08-29.7a3.89,3.89,0,0,0-.27-1.23A1,1,0,0,1,89.89,57.47Zm35.28,49c-1.23-.54-2.32-1.09-3.54-1.5a16,16,0,0,1-7.09-4.77c-1.5-1.77-2.72-3.67-4.08-5.44a24.94,24.94,0,0,1-1.64-1.91c-.14.13-.27.27-.41.27a1.47,1.47,0,0,0,.27,1.09,39.71,39.71,0,0,0,3.68,6.68,14.73,14.73,0,0,0,8,6A5.42,5.42,0,0,0,125.17,106.51ZM88.66,25.87c-1.91-.82-3.54-.28-5,1.49-2.32,2.73-3.13,6.82-1.64,9.27.28-1.23.69-2.18,1-3.14.82-3.13,2-5.85,5.31-7.08A1.94,1.94,0,0,0,88.66,25.87Zm36.24-5.32c.27.14.54.14.81.28a27.15,27.15,0,0,1,1.5-5.73,61,61,0,0,1,3.54-5.17c-1.77-.68-2.72.54-3.67,1.63A9.82,9.82,0,0,0,124.9,20.55Zm-44.82,67a7.62,7.62,0,0,0,.27,7.08c.68,1.09,2,1.77,3.13,2.59.28.13.82-.14,1.37-.14a.68.68,0,0,1,.27-.54C81.58,94.52,80.76,91.12,80.08,87.58Z" transform="translate(0 -0.5)"/><path class="b" d="M190,72.94a13.59,13.59,0,0,0-1.47,1.47c-7.48,7.21-16.42,8.81-26.17,6C153.92,78,148.44,72,144.44,64.52a48.09,48.09,0,0,1-5.61-22.83,63.23,63.23,0,0,1,3.47-21.63,9.74,9.74,0,0,1,2.54-4.41,5.67,5.67,0,0,1,8.54.67,12.27,12.27,0,0,1,1.87,5.61c.53,3.87.94,7.88,1.47,11.75.4,2.67.8,5.47,1.47,8.14a46.28,46.28,0,0,0,7.34,16.83,15.2,15.2,0,0,0,3.34,3.2,3.76,3.76,0,0,0,2,.8c4.81.81,9.08-.26,11.62-4.67a100.7,100.7,0,0,0,6.14-12,99.05,99.05,0,0,0,6.28-20.29c.53-3.07.8-6.14,1.33-9.22.14-1.2.27-2.4.54-3.73.67-3.21,2.67-5.08,5.61-5.21a5.66,5.66,0,0,1,5.87,4.67,92.23,92.23,0,0,1,2.4,12.15,128,128,0,0,1-.13,37.79c-.67,4.54-1.33,8.95-2.14,13.49a59.14,59.14,0,0,1-9.88,23.76c-2.8,4-6,7.62-10.54,9.75a12.91,12.91,0,0,1-10.42.54c-3.2-1.07-4.81-3.48-4.67-6.41.13-2.67,2-4.94,4.67-4.94a5.39,5.39,0,0,0,4.81-2.94,98,98,0,0,0,4.94-9.75,96.21,96.21,0,0,0,3.07-11,5.12,5.12,0,0,0,.13-1.47C190.37,73.07,190.1,73.07,190,72.94Zm-16.43,4.54-.26-.54a10.93,10.93,0,0,0-1.87-.27,23.73,23.73,0,0,1-17.23-8.81c-1.73-2-3.2-4.14-4.8-6.27a10.3,10.3,0,0,1-1.07-1.34c-.27.13-.4.27-.54.27a5.78,5.78,0,0,0,.67,2.13,29.06,29.06,0,0,0,7.21,9.75c3.87,3.34,8.28,5.74,13.35,6.14C170.61,78.68,172.34,78.68,173.54,77.48ZM149.38,16.59l-.4-.4c-2.68.53-3.88,2.8-4.81,5.07-1.47,3.34-1.47,5.74,0,7.48.53-1.6.8-3.07,1.2-4.41a28.82,28.82,0,0,1,1.6-4.14A33.2,33.2,0,0,1,149.38,16.59Zm26.7,84.65c-.8,2.94.27,5.08,2.94,6.55,2.94,1.6,5.21,1.73,6.68.13-1.87-.67-3.74-1.33-5.48-2.14C178.22,105.12,177.15,103.38,176.08,101.24Zm22.7-82.65c.27.13.53.13.8.27a20.44,20.44,0,0,1,1.6-4.81A20.73,20.73,0,0,1,204,9.91,2.84,2.84,0,0,0,200.52,11,8.69,8.69,0,0,0,198.78,18.59Z" transform="translate(0 -0.5)"/></svg>