<svg xmlns="http://www.w3.org/2000/svg" viewBox="0 0 148.77 112.09">
    <defs>
        <style>.a{fill:#ed1e79;}.b{fill:#3fa9f5;}</style>
    </defs>
    <path class="a" d="M61.35,62,60.06,34Q57,39.18,51.3,50.58q-4.89,9.72-6.57,12.61A126.63,126.63,0,0,1,61.35,62ZM82.21,109.6A11.43,11.43,0,0,1,78,112.25a13.83,13.83,0,0,1-5,1q-3.73,0-4.25-2.17A245,245,0,0,1,62,70.27a117.72,117.72,0,0,0-23.06,2Q26.83,91.17,16.39,107c-.69,1.12-2.12,2.06-4.31,2.82A18.74,18.74,0,0,1,6,111c-2.41,0-3.61-.6-3.61-1.8a3,3,0,0,1,.52-1.56Q13.18,90.81,21.93,76.88l-2.19.72a11.43,11.43,0,0,1-3.74.72,4.35,4.35,0,0,1-2.64-.72,2.17,2.17,0,0,1-1-1.8,3.64,3.64,0,0,1,1.22-2.46,10.42,10.42,0,0,1,3.54-2.23q6.06-2.52,10.82-4Q34.94,56,42.8,41.81q9-16.22,15.2-25.34a5.38,5.38,0,0,1,1-1l-.13-.6q0-2.16,3.28-3.9a14,14,0,0,1,6.64-1.74q4.11,0,4.25,2.88l.38,8q1.17,29,3,48.7a213.88,213.88,0,0,0,6.76,37.29A3.38,3.38,0,0,1,82.21,109.6Z" transform="translate(-2.35 -4.67)"/>
    <path class="b" d="M151.12,6.94c0,1.33-.84,2.75-2.5,4.26a8.11,8.11,0,0,1-4.79,2.39,90.58,90.58,0,0,0-26.63,4.52q-4.35,17.14-7.93,36.56a76,76,0,0,1,18.15-2.26,74.93,74.93,0,0,1,7.72.4q2.28.13,2.28,1.86,0,2-2.72,4.59T130,61.72c-1.09-.09-2.72-.14-4.89-.14A71.8,71.8,0,0,0,107.53,64q-4.35,23.52-7.07,46.39c-.21,1.69-1.3,3.17-3.26,4.46a10.51,10.51,0,0,1-5.76,1.93,3.76,3.76,0,0,1-2.55-.8,2.49,2.49,0,0,1-.71-2.4Q91.56,87.51,95,68.1l-3.7,1.59a9.06,9.06,0,0,1-3.26.8A3,3,0,0,1,86,69.83,2.36,2.36,0,0,1,85.24,68a4.8,4.8,0,0,1,1.09-2.79,10.49,10.49,0,0,1,3.15-2.66,76.23,76.23,0,0,1,7.29-3.59q3.69-19.66,8-35.76a7.51,7.51,0,0,1-2.17.53,3.86,3.86,0,0,1-2.61-.93,2.85,2.85,0,0,1-1.09-2.26c0-1.59,1-3,3-4.12q20.55-12.09,45.77-11.7C150,4.68,151.12,5.44,151.12,6.94Z" transform="translate(-2.35 -4.67)"/>
</svg>